<svg width="105" height="65" viewBox="0 0 105 65" fill="none" xmlns="http://www.w3.org/2000/svg">
<path d="M49.5182 46.3064C51.0545 46.613 52.4072 47.0166 54 47.5C52.9175 47.9095 51.9618 48.0452 50.6979 48.2217C48.458 48.0243 46.561 47.6295 44.8686 46.0163C43.3692 44.587 41.2841 45.6187 40.7693 47.7285C37.7163 44.762 34.6634 41.7954 31.4637 38.6679C29.4805 36.7176 27.6441 34.9284 25.7509 33.0163C22.3893 29.7007 19.0845 26.5078 15.6803 23.2191C15.4977 23.5639 15.1897 23.9655 15.0603 24.4181C14.0201 28.057 13.0421 31.7138 11.9804 35.3463C11.6397 36.5119 11.1051 37.6208 10.6506 38.5877C10.752 34.2049 13.2252 30.4519 12.9625 26.1012C12.9001 25.0672 13.1431 24.1356 12.0438 24.136C10.9773 24.1364 9.31437 24.4989 8.95431 25.2212C7.77637 27.5844 7.10365 30.1958 6.16035 32.6827C5.97509 33.1712 5.44898 33.5303 5.08008 33.9491C6.41251 29.4147 7.53889 24.8063 9.13228 20.3656C10.9133 15.4017 17.1373 14.245 21.0564 18.0333C25.3383 22.1722 29.4903 26.4453 33.7073 30.6515C38.7225 35.654 43.7466 40.6475 48.878 45.7428C48.9891 45.8405 48.9349 45.8324 48.9349 45.8324C48.9983 45.8654 49.0617 45.8984 49.2215 46.0614C49.3793 46.2391 49.4461 46.2774 49.5182 46.3064Z" fill="#5D78FF"/>
<path d="M63.1211 39.9211C64.0318 38.9049 64.9031 37.8498 65.8596 36.8787C72.3177 30.3223 78.7996 23.7893 85.262 17.237C89.0113 13.4356 94.6853 14.7104 96.3092 19.8102C98.073 25.3491 99.7762 30.9095 101.374 36.4981C102.572 40.6853 103.568 44.9302 104.641 49.1529C105.482 52.4651 104.821 55.5411 102.934 58.4188C99.5 58.5 103.68 55.3653 104.153 53.6903C104.022 52.7076 103.89 51.8863 103.708 50.9902C103.559 50.5658 103.46 50.2162 103.364 49.7214C102.946 47.0549 102.822 44.4356 102.034 42.0346C100.76 38.1539 99.9104 34.0425 96.9955 30.8415C96.4163 30.2055 96.3702 29.0275 96.2165 28.0771C96.0718 27.1824 96.283 25.865 94.9581 26.1592C94.3192 26.3011 93.425 27.6645 93.5217 28.3516C94.0377 32.0165 94.6709 35.6827 95.5779 39.269C96.302 42.1323 97.5413 44.8619 98.4083 47.6949C98.6512 48.4884 99.5087 49.588 98.0132 50.1632C95.2568 41.088 92.5893 32.1312 89.8405 22.9019C86.3377 26.4812 83.0827 29.8072 79.7053 33.1395C79.4245 33.1862 78.5912 33.2598 78.4068 33.1395C78.2931 31.7406 78.8441 30.4704 78.8131 29.2309C78.8027 28.8146 79.029 28.3923 79.1471 27.9728C78.6263 28.016 77.9524 27.8682 77.6142 28.1393C76.7057 28.8677 76.0721 30 75.0951 30.5712C71.4422 32.7069 68.1711 35.2492 65.4224 38.4882C64.8656 39.1443 63.8988 39.4525 63.1211 39.9211Z" fill="#5D78FF"/>
<path d="M96.1951 63.7964C89.4906 66.5046 81.5932 62.7244 79.1509 55.5546C78.1944 52.7467 77.4517 49.866 76.7383 46.8024C78.6723 44.8886 80.4797 43.1909 82.3615 41.6211C83.1926 44.2552 83.917 46.7719 84.7152 49.2649C85.5436 51.8522 85.9104 54.6793 88.2815 56.6235C88.5519 56.825 88.8189 56.9177 89.2094 57.0137C89.5442 57.1282 89.7556 57.2394 89.8772 57.4298C89.8817 57.7283 89.1152 57.0322 89.2094 57.2515C89.5252 57.0369 90.7016 57.7376 91.1832 57.5044C91.9037 57.4844 92.4586 57.483 93.0443 57.6237C93.6698 58.07 94.2539 58.3977 94.8616 58.6734C95.9711 59.1767 97.0945 59.6493 98.2146 60.1358C97.3717 61.6636 96.7834 62.73 96.1951 63.7964Z" fill="#5D78FF"/>
<path d="M58.001 26.9996C57.5345 27.4466 56.6896 28.4494 56.001 28.9996C55.3595 29.3843 54.9444 29.5036 54.4858 29.6023C53.5546 29.8026 52.3197 30.2358 51.686 29.8299C50.3903 29 49.3903 27.6971 48.3026 26.5565C46.1729 24.3232 44.1068 22.028 41.9412 19.8305C38.8328 16.6763 29.5252 9.06878 26.501 5.99975C29.5362 4.97237 37.9835 10.7309 39.501 12.5C40.118 12.5 39.8752 13.2533 40.4971 13.3925C41.9573 14.938 43.3552 16.3904 44.8763 17.6998C45.1001 17.8924 45.9083 17.4062 46.5724 17.2938C47.4719 17.6364 48.2453 17.9193 49.0186 18.2021C49.0186 18.2021 49.0388 18.2175 49.0063 18.3714C50.1361 21.6903 52.0374 22.6317 55.3385 21.6329C56.5781 22.5742 57.6813 23.4918 58.778 24.5539C58.3789 25.5461 58.3934 26.1518 58.001 26.9996Z" fill="#5D78FF"/>
<path d="M63.5 39.5C64.3398 38.9635 64.8661 39.1436 65.4229 38.4875C68.1716 35.2485 71.4428 32.7062 75.0957 30.5705C76.0727 29.9992 76.7062 28.8669 77.6148 28.1386C77.953 27.8675 78.6269 28.0153 79.1477 27.972C79.0296 28.3916 78.8032 28.8138 78.8136 29.2302C78.8446 30.4697 78.9686 31.7068 79.0164 33.2119C77.2739 35.3139 75.5713 37.1487 73.8687 38.9836C71.5297 41.2085 69.0526 43.6829 66.5 46C65.6793 45.4952 65.1295 44.7097 64.623 44.0369C63.9307 43.1175 61.6129 43.1079 61 42C61.7363 41.5138 62.7642 40.5128 62.7643 40.3407C62.8434 40.247 63.3615 39.6638 63.5 39.5Z" fill="#5D78FF"/>
<path d="M62.7632 41.1157C63.3766 42.0945 63.9308 43.1179 64.623 44.0373C65.1295 44.71 65.8175 45.2461 66.5644 45.866C62.9604 50.4455 58.2261 54.509 51.5 54C51.6384 53.6141 52.6186 53.379 52.9285 53.2083C53.363 52.9689 53.8371 52.8014 54.2943 52.6032C53.9415 52.2887 50.9096 52.6189 50.5 52.5C48.7513 51.9924 48.7455 47.5259 48.5 46C49.6392 45.7673 53.1016 47.812 54.2989 47.4624C54.9731 46.9691 55.5892 46.5928 56.4952 46.2047C57.0221 45.9189 57.2591 45.6449 57.496 45.3709C57.496 45.3709 57.3301 45.5168 57.4084 45.4716C57.568 45.302 57.8273 45.0834 57.9086 44.9591L58 45C58 44.5 58.2488 44.6311 58.3388 44.4886C58.8831 43.9103 59.4274 43.3321 60.2004 42.6456C60.5278 42.3923 60.6265 42.2472 60.7252 42.1022C60.7101 42.0041 60.7461 41.9311 61.0206 41.8128C61.3133 41.5931 61.4185 41.444 61.5238 41.2948C61.5151 41.1912 61.557 41.1158 61.8806 41.0801C62.3288 41.0997 62.546 41.1077 62.7632 41.1157Z" fill="#5D78FF"/>
<path d="M29.0786 46.3136C27.9195 50.0438 27.0178 53.881 25.5247 57.4724C24.1889 60.6853 21.4768 62.7775 17.9601 63.7468C17.803 63.405 17.7992 63.2041 17.9011 62.9616C19.9068 62.6523 20.7851 60.8921 22.185 60.0484C24.4058 58.7099 24.5021 56.7137 24.8659 54.7219C24.9455 54.286 24.3273 53.5024 23.8396 53.2548C23.4665 53.0653 22.6827 53.3238 22.2731 53.6351C21.069 54.5501 20.094 55.8613 18.7792 56.511C17.2659 57.2588 15.8802 59.1017 13.8672 57.661C17.0703 57.2736 18.9072 55.5322 19.8018 52.5847C20.9656 48.7505 22.2123 44.9414 23.53 41.1963C25.4506 42.9519 27.2646 44.6327 29.0786 46.3136Z" fill="#5D78FF"/>
<path d="M20.0011 63C20.005 63.2008 18.384 63.756 17.8112 63.756C12.3568 65.9132 6.51856 63.952 2.86765 58.6608C2.00115 57 2.50115 58 1.5113 56.2386C1.46775 56.0922 1.4242 55.9458 1.43168 55.5283C1 54.5 1.18025 53.9812 1 53.5C0.3532 51.7734 2.58573 51.5837 3.40717 50.9425C3.53191 50.8451 4.54057 51.7939 5.07244 52.3266C5.70736 52.9625 6.23986 53.7033 6.89946 54.3085C6.98224 54.3845 7.56821 53.912 8.02502 53.786C8.97891 54.8437 9.82881 55.809 10.74 56.9052C11.0625 57.1012 11.3081 57.3268 11.5781 57.3857C11.587 57.3795 11.6239 57.22 11.5784 57.3779C11.5639 57.8558 11.5253 58.2029 11.6368 58.492C12.7218 61.3062 17.3695 62.2853 20.0011 63Z" fill="#5D78FF"/>
<path d="M40.4744 13.2537C39.8748 13.2537 39.2753 13.2537 38.6583 13.2537C37.1408 11.4846 35.6697 9.49051 32.5177 10.4544C29.0802 6.71647 25.1501 4.43354 20.3089 3.81531C19.6909 3.73639 19.0792 3.60876 18.4873 3.50759C18.6765 2.78591 18.3556 2.55467 18.501 2C18.6928 1.87677 19.3509 1.43009 19.7579 1.40103C20.7075 1.30305 21.587 0.692946 22.501 0.5C26.2302 0.6186 29.8235 0.990071 32.6474 3.38187C35.7482 6.00821 38.4159 9.14589 41.1413 12.0921C40.832 12.4999 40.6537 12.8763 40.4751 13.253L40.4744 13.2537Z" fill="#5D78FF"/>
<path d="M8.32016 54.3085C7.96733 54.5268 6.98211 54.3844 6.89933 54.3085C6.23972 53.7033 5.70723 52.9624 5.07231 52.3265C4.54043 51.7938 3.62572 53.4026 3.50098 53.5C2.67954 54.1412 2.07948 52.4514 2.72628 54.178C2.90652 54.6592 1.55277 54.6821 1.45515 55.4127C1.2336 55.1915 1.03947 54.8145 0.893016 54.178C0.721155 53.7617 0.794329 53.6127 0.721155 53.4598C-0.242564 49.135 1.67335 45.2954 3.00954 41.1906C3.83731 40.139 4.54982 39.2688 4.97792 38.276C5.5756 36.8899 6.24288 36.9832 7.18453 37.8712C8.81148 39.4055 9.48562 41.1124 8.6725 43.372C8.3606 44.2388 8.61572 45.3096 8.62903 46.4183C8.51306 46.865 8.38052 47.1807 8.15553 47.4156C7.74865 47.5373 7.14967 47.7879 7.17422 47.9329C7.2424 48.336 7.75707 48.5102 8.00098 49C7.93163 49.317 7.65614 49.7057 7.45199 49.9184C7.19283 50.0293 7.91922 49.3981 7.77599 49.5C7.95034 49.644 7.77599 50.6479 7.77599 50.9424C7.95241 51.9951 8.18152 53.3853 8.32016 54.3085Z" fill="#5D78FF"/>
<path d="M8.61305 46.2877C8.6163 45.3099 8.36118 44.2391 8.67309 43.3724C9.48621 41.1128 8.81207 39.4058 7.18511 37.8716C6.24347 36.9836 5.57619 36.8903 4.97851 38.2763C4.55041 39.2691 3.8379 40.1393 3.1123 41.0943C3.11249 40.5462 3.25265 39.968 3.52835 39.1578C3.6976 38.7688 3.7313 38.612 3.765 38.4552C4.17552 37.0497 4.58604 35.6443 5.03862 34.0939C5.4496 33.5301 5.9757 33.1709 6.16097 32.6825C7.10427 30.1955 7.77698 27.5842 8.95493 25.221C9.31499 24.4986 10.978 24.1361 12.0444 24.1357C13.1437 24.1353 12.9007 25.067 12.9632 26.101C13.2258 30.4517 10.7527 34.2047 10.6448 38.5799C10.6468 38.7403 10.6655 38.747 10.6081 38.7757C10.4495 38.9115 10.4598 39.0163 10.578 39.2754C9.92071 41.7174 9.26687 44.0026 8.61305 46.2877Z" fill="#5D78FF"/>
<path d="M96.3373 63.7699C94.5 63.7699 97.3712 61.6639 98.2141 60.1361C97.094 59.6496 95.9706 59.1771 94.8611 58.6737C94.2534 58.398 92.9925 58.501 92.5 58C94.8611 56.6651 98.4176 53.5688 98.3197 50.6588C98.7372 50.5032 99.1146 50.4248 99.2647 50.1967C100.646 48.0986 100.632 48.0947 102.66 49.5481C102.864 49.6947 103.126 49.7625 103.361 49.8669C103.46 50.2165 104.495 52.5713 104.5 53C103.903 53.4089 102.465 51.7335 101.963 52.0632C102.345 52.513 102.687 53.0077 103.125 53.3958C103.392 53.6327 104.153 53.3535 104.5 53.5C104.029 55.0136 103.209 56.8792 102.82 58.4983C101.342 61.0427 99.0079 62.5139 96.3373 63.7699Z" fill="#5D78FF"/>
<path d="M77.8985 7.23013C77.7206 7.36148 77.5427 7.49283 77.1137 7.67805C76.2829 8.39066 75.7032 9.04939 75.1235 9.70813C75.1235 9.70813 75.1104 9.6789 74.9797 9.68575C74.4763 9.91952 74.0521 10.0913 73.7398 10.383C72.452 11.586 71.1982 12.8254 69.7921 14.0166C68.4124 13.2784 66.8361 13.0233 66.2734 11.4035C66.2324 11.2856 65.7898 11.3072 65.542 11.1171C66.2911 10.1043 67.0712 9.26825 67.7627 8.36433C68.5239 7.36925 69.2036 6.3118 69.9188 5.28151C69.9188 5.28151 69.9279 5.29326 70.0727 5.28837C71.4506 5.08719 72.3672 4.6199 72.0733 3.11605C72.0733 3.11605 72.0982 3.07782 72.2828 3.11064C73.738 2.92481 75.0086 2.70616 76.3042 2.62988C76.8519 3.88499 77.3747 4.99773 77.8975 6.25043C77.8979 6.6703 77.8982 6.95022 77.8985 7.23013Z" fill="#5D78FF"/>
<path d="M74.015 39.0487C72.5001 37 76.7318 34.4409 78.5003 32.4998C78.7246 32.3531 79.7617 32.8277 79.7617 33.2821C80.7225 36.1102 81.5049 38.8016 82.2872 41.493C83.5 44 77 49 76.7401 46.6417C75.7973 44.1696 74.9793 41.6416 74.015 39.0487Z" fill="#5D78FF"/>
<path d="M29.1672 46.2089C28.001 48 22.5782 44.882 23.523 41.0436C24.2092 38.2571 25.0083 35.698 25.8074 33.139C29.5006 31.5001 32.5006 35.5003 31.3336 38.6468C30.6524 41.2261 29.9544 43.6652 29.1672 46.2089Z" fill="#5D78FF"/>
<path d="M50.6978 48.2217C51.068 49.8037 51.4779 51.1814 53.2266 51.6891C53.6363 51.808 53.9407 52.2891 54.2936 52.6036C53.8364 52.8019 53.3622 52.9694 52.9277 53.2087C52.6178 53.3794 52.3611 53.6467 52.0508 53.9936C47.862 54.019 44.6284 52.0857 41.9457 49.0494C41.6091 48.6684 40.9108 47.978 40.5 47.5C40.9617 45.2746 43.3691 44.587 44.8684 46.0162C46.5608 47.6295 48.4578 48.0243 50.6978 48.2217Z" fill="#5D78FF"/>
<path d="M19.001 1.50011C21.501 1 18.6773 2.78642 18.4881 3.5081C19.08 3.60928 19.6918 3.73691 20.3097 3.81583C25.1509 4.43405 29.081 6.71698 32.3969 10.4067C35.6595 13.5874 38.8333 16.6772 41.9417 19.8314C44.1073 22.0289 46.1734 24.3241 48.3031 26.5574C49.3907 27.698 50.3908 29.0009 51.6865 29.8308C52.3202 30.2367 53.5551 29.8035 54.4863 29.6031C54.9449 29.5045 55.3316 29.0716 55.8999 28.7851C53.8983 31.8961 52.6084 32.0402 50.0207 29.4558C43.3137 22.7574 36.5877 16.0779 29.906 9.35447C26.1236 5.54837 21.7801 3.7821 16.4081 5.2567C15.8413 5.41228 15.2091 5.32943 14.6072 5.35719C14.5187 5.13391 14.4303 4.91064 14.3418 4.68736C15.8115 3.68053 17.4227 2.50184 19.001 1.50011Z" fill="#5D78FF"/>
<path d="M58.785 24.4101C57.6818 23.4924 53.7348 23.5795 52.501 22.5C52.7524 21.4768 55.9781 19.6108 56.3601 18.7496C56.3861 18.6817 56.4121 18.6137 56.6424 18.5149C58.0308 18.2717 58.8397 17.5704 59.001 16C59.9735 15.4534 64.6404 10.8801 65.501 10.5C66.1819 11.0832 63.274 16.2002 63.9972 16.3983C65.1347 16.71 66.2195 17.2862 66.001 18.5C65.7022 18.6493 64.9561 18.7299 64.6269 18.8619C64.3177 19.2678 64.1405 19.6449 63.9066 20.1477C63.7879 20.6275 63.7258 20.9816 63.6637 21.3358C63.6637 21.3358 63.6507 21.2852 63.5714 21.3309C63.4062 21.4992 63.3205 21.6217 63.2347 21.7442C63.2347 21.7442 63.2575 21.7056 63.1292 21.7078C61.5957 22.61 60.1903 23.5101 58.785 24.4101Z" fill="#5D78FF"/>
<path d="M77.9953 7.26404C77.8972 6.95053 77.8969 6.67061 78.0462 6.242C80.4403 5.79426 81.9565 3.29762 84.5743 4.02923C85.2715 4.22411 86.0694 4.05869 87.4488 4.05869C86.7304 3.18062 86.3887 2.50083 85.8375 2.15245C85.0729 1.66921 84.1573 1.41781 83.2951 1.09741C81.3285 0.366615 77.5348 1.12701 76.2783 2.48782C75.0077 2.70647 73.7371 2.92511 72.3037 3.10438C78.2304 -1.89559 89.095 -0.103764 92.3984 6.77075C87.3152 3.81023 82.6147 4.18618 77.9953 7.26404Z" fill="#5D78FF"/>
<path d="M41.2724 12.061C38.416 9.14609 35.7484 6.00842 32.6476 3.38208C29.8237 0.990272 26.0853 1.03677 22.3541 0.832347C22.1727 0.74733 22.1689 0.575753 22.1689 0.575753C27.0578 -0.48133 31.3603 0.671421 34.9372 4.16209C39.62 8.73203 44.2235 13.3832 48.9398 18.1011C48.2451 17.9198 47.4718 17.637 46.5133 17.1716C45.8373 16.6727 45.3465 16.3565 44.855 15.9408C44.8542 15.8414 44.8525 15.6426 44.8304 15.5081C43.8938 14.5335 42.9795 13.6935 42.0403 12.7319C41.7678 12.4272 41.5201 12.2441 41.2724 12.061Z" fill="#5D78FF"/>
<path d="M65.5535 18.4307C65.6706 17.263 65.1346 16.7093 63.9971 16.3976C63.2739 16.1995 62.6716 15.56 62.0479 14.8518C62.5716 14.0068 63.0627 13.4286 63.6368 12.8008C63.8232 12.6701 63.9046 12.571 64.0597 12.3748C64.615 11.9519 65.0743 11.6078 65.5337 11.2637C65.7895 11.3069 66.2321 11.2853 66.2731 11.4032C66.8358 13.023 68.412 13.2781 69.7331 14.1476C69.7407 14.6838 69.6673 15.0539 69.5938 15.424C69.4281 15.6281 69.2624 15.8322 68.8543 16.0693C67.8903 16.9167 67.1686 17.731 66.447 18.5454C66.447 18.5454 66.3861 18.4661 66.2734 18.4725C65.9582 18.4629 65.7559 18.4468 65.5535 18.4307Z" fill="#5D78FF"/>
<path d="M65.5414 11.1172C65.074 11.6082 64.6147 11.9523 63.9765 12.4252C63.6942 12.6348 63.6128 12.7337 63.5534 12.8508C63.0624 13.429 62.5714 14.0072 62.0232 14.7105C61.1298 15.3574 60.2936 15.8791 59.3099 16.2966C59.1502 16.1069 59.1381 16.0214 59.126 15.936C62.6371 12.4077 66.1483 8.87945 69.7888 5.31641C69.203 6.31192 68.5233 7.36938 67.7621 8.36446C67.0707 9.26837 66.2905 10.1044 65.5414 11.1172Z" fill="#5D78FF"/>
<path d="M57.001 18.5C56.7439 19.3096 55.5236 20.8934 55.1358 21.8929C51.9653 23.0536 49.6206 21.3113 48.501 18C49.7168 18.9873 51.4033 20.5026 52.5838 21.6285C52.6681 21.709 52.8232 21.7153 53.0188 21.7806C54.0325 20.8204 55.8372 19.5356 57.001 18.5Z" fill="#5D78FF"/>
<path d="M58.001 24C59.4129 22.9556 61.5953 22.6094 63.1441 21.7236C61.4826 23.5715 59.6776 25.4052 57.7334 27.2403C57.9866 26.3938 57.6019 24.9922 58.001 24Z" fill="#5D78FF"/>
<path d="M69.7177 15.3645C69.6671 15.0545 64.8686 11.501 65.0007 10.9996C66.3258 9.64229 71.2132 4.20253 72.501 2.99953C72.8132 2.70784 75.9831 8.72688 76.501 8.5C74.8804 10.3705 71.6075 13.4339 69.7177 15.3645Z" fill="#5D78FF"/>
<path d="M65.452 18.477C65.7558 18.447 67.6487 16.957 68.0011 16.9999C67.2971 17.9213 61.9725 23.0461 61.001 24C60.9455 23.7053 61.4874 19.4155 63.0013 19.4997C63.3594 18.9566 63.8086 18.8538 64.0013 18.4997C64.1986 18.3965 65.1533 18.6262 65.452 18.477Z" fill="#5D78FF"/>
<path d="M59.0054 15.9893C59.1382 16.0217 59.1503 16.1071 59.1737 16.3217C59.1599 17.9964 58.0306 18.2717 56.7383 18.4633C57.3817 17.6426 58.1332 16.8424 59.0054 15.9893Z" fill="#5D78FF"/>
<path d="M71.9569 3.17188C72.3668 4.6207 71.4502 5.08799 70.0664 5.28438C70.5575 4.59863 71.1992 3.91276 71.9569 3.17188Z" fill="#5D78FF"/>
<path d="M66.5693 18.4949C67.1689 17.732 67.8906 16.9177 68.7601 16.1035C68.1691 16.8836 67.4302 17.6636 66.5693 18.4949Z" fill="#5D78FF"/>
<path d="M75.252 9.67588C75.7026 9.05018 76.2823 8.39145 77.0056 7.7168C76.5598 8.3482 75.9705 8.99552 75.252 9.67588Z" fill="#5D78FF"/>
<path d="M22.1745 0.549805C22.3173 0.568816 22.1726 0.747054 22.1745 0.832878C21.442 1.11084 20.001 1.5 19.001 1.49982C19.6056 1.1509 21.3308 0.790612 22.1745 0.549805Z" fill="#5D78FF"/>
<path d="M63.3434 21.7036C63.3208 21.6211 63.4065 21.4986 63.5978 21.3311C63.6194 21.4118 63.5356 21.5377 63.3434 21.7036Z" fill="#5D78FF"/>
<path d="M49.4915 46.2475C49.4464 46.2771 49.3797 46.2388 49.2734 46.155C49.3219 46.0928 49.4005 46.1161 49.4915 46.2475Z" fill="#5D78FF"/>
<path d="M48.9468 45.8533C48.9356 45.8318 48.9898 45.84 49.0033 45.8362C49.0169 45.8324 48.9581 45.8748 48.9468 45.8533Z" fill="#5D78FF"/>
<path d="M3.67068 38.54C3.73139 38.612 3.69769 38.7689 3.58815 39.0206C3.53364 38.9519 3.55496 38.7884 3.67068 38.54Z" fill="#5D78FF"/>
<path d="M98.3201 50.6584C98.1368 50.6069 98.0174 50.1627 98 50C99.4272 49.2031 98.5 48.5 98.4085 47.6948C97.5415 44.8619 96.3022 42.1323 95.5781 39.2689C94.6711 35.6827 94.0379 32.0164 93.5219 28.3516C93.4252 27.6645 94.3194 26.3011 94.9583 26.1592C96.2832 25.8649 96.072 27.1824 96.2167 28.0771C96.3704 29.0275 96.4165 30.2055 96.9957 30.8415C99.9106 34.0424 100.76 38.1538 102.034 42.0345C102.823 44.4356 103.582 48.3335 104 51C103.762 51.0408 102.865 49.6944 102.66 49.5478C100.632 48.0944 100.646 48.0982 99.2651 50.1964C99.115 50.4245 98.7376 50.5029 98.3201 50.6584Z" fill="#5D78FF"/>
<path d="M104.153 53.6902C103.804 53.7051 103.392 53.6323 103.125 53.3954C102.688 53.0073 102.345 52.5126 101.963 52.0628C102.465 51.7331 102.967 51.4034 103.614 51.0693C103.89 51.8863 104.022 52.7075 104.153 53.6902Z" fill="#5D78FF"/>
<path d="M42.0656 12.8535C42.9799 13.6935 43.8942 14.5335 44.7782 15.5484C44.6773 15.8564 44.7134 15.962 44.8561 16.0402C45.3469 16.3565 45.8377 16.6728 46.3874 17.1118C45.9085 17.4068 45.1003 17.893 44.8765 17.7004C43.3554 16.391 41.9575 14.9386 40.4973 13.3931C40.4749 13.2539 40.4754 13.2534 40.6115 13.2344C41.1869 13.0948 41.6262 12.9741 42.0656 12.8535Z" fill="#5D78FF"/>
<path d="M11.5789 57.3783C12.2481 57.4232 13.2282 57.3143 14.001 57.5C16.2369 58.7903 17.2661 57.2589 18.7794 56.5111C20.0943 55.8614 21.0692 54.5502 22.2733 53.6352C22.6829 53.324 23.4667 53.0654 23.8398 53.2549C24.3275 53.5026 24.9457 54.2862 24.8661 54.722C24.5024 56.7138 24.406 58.71 22.1852 60.0485C20.7853 60.8922 19.907 62.6524 17.9014 62.9618C15.1639 62.2887 12.7224 61.3067 11.6373 58.4925C11.5258 58.2033 11.5644 57.8563 11.5789 57.3783Z" fill="#5D78FF"/>
<path d="M49.001 18.5C48.5865 18.7422 40.001 17.5 40.501 14.5C40.5435 14.1423 34.1919 5.40778 34.5012 5C34.8798 5.15178 50.001 18 49.001 18.5Z" fill="#5D78FF"/>
<path d="M8.15587 47.416C8.14091 47.9403 8.03351 48.3839 7.86064 48.9497C7.57017 48.6955 7.24274 48.3364 7.17456 47.9333C7.15001 47.7883 7.74899 47.5377 8.15587 47.416Z" fill="#5D78FF"/>
<path d="M10.6075 38.7754C10.6649 38.7468 10.6307 38.9343 10.6058 39.0263C10.4592 39.016 10.4489 38.9113 10.6075 38.7754Z" fill="#5D78FF"/>
<path d="M71.5008 3.49979C72.7325 1.99661 82.0008 -0.000220686 83.2954 1.097C84.1576 1.4174 85.0732 1.6688 85.8378 2.15204C86.3891 2.50042 86.7308 3.1802 87.4491 4.05828C86.0698 4.05828 85.2719 4.22369 84.5746 4.02882C81.9569 3.29721 79.395 7.19204 77.0008 7.49981C76.3284 6.39581 63.001 11 71.5008 3.49979Z" fill="#5D78FF"/>
<path d="M64.6263 18.8623C64.5654 19.1876 64.3727 19.5417 64.0713 19.9591C64.1399 19.6453 64.3171 19.2682 64.6263 18.8623Z" fill="#5D78FF"/>
<path d="M44.8554 15.941C44.7134 15.9622 44.6773 15.8565 44.8003 15.683C44.8529 15.6428 44.8546 15.8416 44.8554 15.941Z" fill="#5D78FF"/>
<path d="M63.6368 12.801C63.6131 12.7336 63.6945 12.6347 63.8809 12.5039C63.9046 12.5712 63.8233 12.6704 63.6368 12.801Z" fill="#5D78FF"/>
</svg>
